HIERARCHY
ROOT joint_Root
{
	OFFSET 0.0 0.0 0.0
	CHANNELS 6 Xposition Yposition Zposition Zrotation Xrotation Yrotation 
	JOINT Hips
	{
		OFFSET -17.1583 93.1646 452.98
		CHANNELS 6 Xposition Yposition Zposition Zrotation Xrotation Yrotation 
		JOINT Spine
		{
			OFFSET 15.7357 0.0 0.0
			CHANNELS 6 Xposition Yposition Zposition Zrotation Xrotation Yrotation 
			JOINT Chest
			{
				OFFSET 8.98455 -0.406207 0.0
				CHANNELS 6 Xposition Yposition Zposition Zrotation Xrotation Yrotation 
				JOINT Neck
				{
					OFFSET 16.3773 0.0 0.0
					CHANNELS 6 Xposition Yposition Zposition Zrotation Xrotation Yrotation 
					JOINT Head
					{
						OFFSET 6.45672 0.0 0.0
						CHANNELS 6 Xposition Yposition Zposition Zrotation Xrotation Yrotation 
						End Site
						{
							OFFSET 0.0 0.0 0.0
						}
					}
				}
				JOINT Shoulder_L
				{
					OFFSET 12.9942 -0.242716 4.98039
					CHANNELS 6 Xposition Yposition Zposition Zrotation Xrotation Yrotation 
					JOINT UpperArm_L
					{
						OFFSET 5.34809 0.0 0.0
						CHANNELS 6 Xposition Yposition Zposition Zrotation Xrotation Yrotation 
						JOINT LowerArm_L
						{
							OFFSET 24.3286 1.87007e-05 0.0
							CHANNELS 6 Xposition Yposition Zposition Zrotation Xrotation Yrotation 
							JOINT Hand_L
							{
								OFFSET 22.2916 0.0 0.0
								CHANNELS 6 Xposition Yposition Zposition Zrotation Xrotation Yrotation 
								End Site
								{
									OFFSET 0.0 0.0 0.0
								}
							}
						}
					}
				}
				JOINT Shoulder_R
				{
					OFFSET 12.9945 -0.242716 -4.98039
					CHANNELS 6 Xposition Yposition Zposition Zrotation Xrotation Yrotation 
					JOINT UpperArm_R
					{
						OFFSET -5.34813 0.0 0.0
						CHANNELS 6 Xposition Yposition Zposition Zrotation Xrotation Yrotation 
						JOINT LowerArm_R
						{
							OFFSET -24.3289 0.000322201 0.0
							CHANNELS 6 Xposition Yposition Zposition Zrotation Xrotation Yrotation 
							JOINT Hand_R
							{
								OFFSET -22.2915 -0.000108084 0.0
								CHANNELS 6 Xposition Yposition Zposition Zrotation Xrotation Yrotation 
								End Site
								{
									OFFSET 0.0 0.0 0.0
								}
							}
						}
					}
				}
			}
		}
		JOINT UpperLeg_L
		{
			OFFSET -2.19248 -6.46944 0.0
			CHANNELS 6 Xposition Yposition Zposition Zrotation Xrotation Yrotation 
			JOINT LowerLeg_L
			{
				OFFSET 39.0811 0.0 -1.23785e-05
				CHANNELS 6 Xposition Yposition Zposition Zrotation Xrotation Yrotation 
				JOINT Foot_L
				{
					OFFSET 40.9854 0.0 -1.26872e-05
					CHANNELS 6 Xposition Yposition Zposition Zrotation Xrotation Yrotation 
					JOINT Toes_L
					{
						OFFSET 11.7543 0.0 0.0
						CHANNELS 6 Xposition Yposition Zposition Zrotation Xrotation Yrotation 
						End Site
						{
							OFFSET 0.0 0.0 0.0
						}
					}
				}
			}
		}
		JOINT UpperLeg_R
		{
			OFFSET -2.19251 6.46944 0.0
			CHANNELS 6 Xposition Yposition Zposition Zrotation Xrotation Yrotation 
			JOINT LowerLeg_R
			{
				OFFSET -39.0811 -0.00228153 -0.0401928
				CHANNELS 6 Xposition Yposition Zposition Zrotation Xrotation Yrotation 
				JOINT Foot_R
				{
					OFFSET -40.9854 0.0 0.0
					CHANNELS 6 Xposition Yposition Zposition Zrotation Xrotation Yrotation 
					JOINT Toes_R
					{
						OFFSET -11.7543 0.0 0.0
						CHANNELS 6 Xposition Yposition Zposition Zrotation Xrotation Yrotation 
						End Site
						{
							OFFSET 0.0 0.0 0.0
						}
					}
				}
			}
		}
	}
}
MOTION
Frames:	9
Frame Time:	0.0333333
0.000000 0.000000 0.000000 0.000000 0.000000 -0.000000 -237.842000 87.750500 295.899000 -54.736500 80.706100 144.059000 15.735700 0.000005 -0.000001 35.069200 86.395200 -31.076200 8.984550 -0.406207 -0.000000 -3.401420 -6.286290 7.807860 16.377300 -0.000001 -0.000001 -0.444751 2.152140 -1.597140 6.456720 -0.000001 -0.000000 5.246330 4.571940 -3.643470 12.994200 -0.242716 4.980390 -93.511900 11.083900 -72.295100 5.348090 -0.000007 -0.000001 -69.118000 13.906800 -6.651370 24.328600 0.000019 0.000005 25.382700 35.518500 -39.237500 22.291600 -0.000001 0.000005 -3.312300 5.235660 1.822660 12.994500 -0.242716 -4.980390 88.763600 3.594830 -71.005900 -5.348130 -0.000001 -0.000004 -62.146500 -7.493400 6.264270 -24.328900 0.000322 -0.000009 0.150935 2.640030 -3.296040 -22.291500 -0.000108 -0.000004 8.298520 5.085560 5.439470 -2.192480 -6.469440 -0.000000 -165.900000 -0.325997 0.158638 39.081100 -0.000007 -0.000012 0.222069 -0.194211 48.828200 40.985400 -0.000006 -0.000013 -16.765000 22.148000 -25.959300 11.754300 -0.000000 0.000003 -0.000224 -0.003697 -16.727600 -2.192510 6.469440 -0.000001 -168.397000 6.847430 156.157000 -39.081100 -0.002282 -0.040193 0.317345 -0.336851 42.996400 -40.985400 0.000008 0.000006 1.787230 -5.652900 -76.311500 -11.754300 -0.000006 -0.000006 -0.006082 0.239244 -6.860420
0.000000 0.000000 0.000000 0.000000 0.000000 -0.000000 -234.203000 88.164200 296.197000 -58.959800 79.465400 149.101000 15.735700 0.000005 -0.000001 42.763000 86.651300 -38.850800 8.984550 -0.406207 -0.000000 -3.031950 -5.283090 7.690190 16.377300 -0.000001 -0.000001 -0.599601 1.344940 -1.087660 6.456720 -0.000001 -0.000000 5.532650 3.148170 -3.610270 12.994200 -0.242716 4.980390 -93.542100 11.447100 -72.677600 5.348090 -0.000007 -0.000001 -68.759500 12.995000 -5.523960 24.328600 0.000019 0.000005 13.180500 40.628900 -19.782200 22.291600 -0.000001 0.000005 -11.215800 5.195390 2.840380 12.994500 -0.242716 -4.980390 88.444200 4.567260 -71.166300 -5.348130 -0.000001 -0.000004 -64.593200 -0.399405 2.998150 -24.328900 0.000322 -0.000009 0.205702 1.914380 -6.165340 -22.291500 -0.000108 -0.000004 2.202070 5.127710 4.461540 -2.192480 -6.469440 -0.000000 -165.390000 1.135760 -6.730360 39.081100 -0.000007 -0.000012 0.355672 -0.220286 58.227800 40.985400 -0.000006 -0.000013 -17.689600 15.042800 -22.881600 11.754300 -0.000000 0.000003 0.000313 0.005445 -16.356400 -2.192510 6.469440 -0.000001 -168.527000 8.589870 160.571000 -39.081100 -0.002282 -0.040193 0.188334 -0.212007 41.117500 -40.985400 0.000008 0.000006 0.071596 -4.787040 -77.736200 -11.754300 -0.000006 -0.000006 -0.005519 0.234074 -7.071240
0.000000 0.000000 0.000000 0.000000 0.000000 -0.000000 -230.821000 89.174200 296.160000 -62.725400 80.611400 153.080000 15.735700 0.000005 -0.000001 52.756500 87.096500 -49.424500 8.984550 -0.406207 -0.000000 -3.026320 -3.826380 6.565870 16.377300 -0.000001 -0.000001 -0.468354 1.276790 -0.744308 6.456720 -0.000001 -0.000000 6.014460 2.527350 -2.751280 12.994200 -0.242716 4.980390 -93.347900 10.545400 -72.274100 5.348090 -0.000007 -0.000001 -68.163300 2.971950 -2.124770 24.328600 0.000019 0.000005 2.758610 44.565200 -3.929260 22.291600 -0.000001 0.000005 -10.680000 4.994690 7.416910 12.994500 -0.242716 -4.980390 88.297600 5.111620 -71.551800 -5.348130 -0.000001 -0.000004 -65.884500 8.282520 -0.645541 -24.328900 0.000322 -0.000009 0.607864 3.030330 -11.351900 -22.291500 -0.000108 -0.000004 -1.509030 5.202060 2.663960 -2.192480 -6.469440 -0.000000 -166.809000 0.408528 -12.296400 39.081100 -0.000007 -0.000012 0.389237 -0.187539 64.274400 40.985400 -0.000006 -0.000013 -15.314100 12.818400 -29.128600 11.754300 -0.000000 0.000003 0.000548 0.009799 -16.179600 -2.192510 6.469440 -0.000001 -170.192000 7.251420 165.558000 -39.081100 -0.002282 -0.040193 0.004446 -0.001543 36.923500 -40.985400 0.000008 0.000006 -2.695260 -4.242140 -77.239900 -11.754300 -0.000006 -0.000006 -0.004399 0.223191 -7.514760
0.000000 0.000000 0.000000 0.000000 0.000000 -0.000000 -227.609000 90.499200 295.830000 -69.668900 83.238400 159.731000 15.735700 0.000005 -0.000001 67.436500 87.508900 -64.946500 8.984550 -0.406207 -0.000000 -3.114710 -2.147110 4.922980 16.377300 -0.000001 -0.000001 -0.354720 1.616830 -0.406232 6.456720 -0.000001 -0.000000 6.230640 2.619100 -2.451250 12.994200 -0.242716 4.980390 -93.273300 9.830910 -71.481200 5.348090 -0.000007 -0.000001 -63.866600 -6.224670 4.039200 24.328600 0.000019 0.000005 0.255587 47.724100 -0.345075 22.291600 -0.000001 0.000005 -9.774710 4.723680 12.731900 12.994500 -0.242716 -4.980390 88.386900 4.928240 -71.851000 -5.348130 -0.000001 -0.000004 -66.344200 14.020100 -4.061710 -24.328900 0.000322 -0.000009 2.029360 5.668020 -19.738700 -22.291500 -0.000108 -0.000004 -1.696840 5.250250 1.427000 -2.192480 -6.469440 -0.000000 -169.746000 -1.449760 -16.904700 39.081100 -0.000007 -0.000012 0.353287 -0.156371 66.124400 40.985400 -0.000006 -0.000013 -12.519200 11.974800 -34.208800 11.754300 -0.000000 0.000003 0.000368 0.006440 -16.316000 -2.192510 6.469440 -0.000001 -172.657000 5.609880 170.185000 -39.081100 -0.002282 -0.040193 -0.007028 0.016546 31.967100 -40.985400 0.000008 0.000006 -3.453780 -3.260250 -75.196400 -11.754300 -0.000006 -0.000006 -0.002704 0.204880 -8.260240
0.000000 0.000000 0.000000 0.000000 0.000000 -0.000000 -224.567000 91.873400 295.357000 -82.300300 86.169500 171.565000 15.735700 0.000005 -0.000001 88.079700 87.790900 -86.378600 8.984550 -0.406207 -0.000000 -3.343410 -0.312800 3.393770 16.377300 -0.000001 -0.000001 -0.281090 2.076520 -0.113162 6.456720 -0.000001 -0.000000 6.096020 2.787730 -2.526960 12.994200 -0.242716 4.980390 -93.308600 9.159040 -70.039500 5.348090 -0.000007 -0.000001 -57.860100 -10.412700 10.738100 24.328600 0.000019 0.000005 2.995730 48.375200 -4.005180 22.291600 -0.000001 0.000005 -10.485400 4.790790 11.490400 12.994500 -0.242716 -4.980390 88.627400 4.304170 -72.294100 -5.348130 -0.000001 -0.000004 -66.412600 16.625400 -6.445700 -24.328900 0.000322 -0.000009 3.079460 5.322500 -30.131400 -22.291500 -0.000108 -0.000004 0.475366 5.276610 0.722006 -2.192480 -6.469440 -0.000000 -172.790000 -3.238730 -20.812100 39.081100 -0.000007 -0.000012 0.320760 -0.154561 64.272000 40.985400 -0.000006 -0.000013 -11.576300 10.925500 -37.852100 11.754300 -0.000000 0.000003 0.001030 0.019646 -15.779900 -2.192510 6.469440 -0.000001 -175.356000 5.383280 173.965000 -39.081100 -0.002282 -0.040193 -0.013781 0.033739 26.862900 -40.985400 0.000008 0.000006 -4.245990 -0.748333 -71.616500 -11.754300 -0.000006 -0.000006 -0.000274 0.172163 -9.590230
0.000000 0.000000 0.000000 0.000000 0.000000 -0.000000 -221.665000 93.099600 294.897000 -123.590000 88.492900 -148.362000 15.735700 0.000005 -0.000001 112.491000 87.823200 -111.410000 8.984550 -0.406207 -0.000000 -3.757960 1.555740 2.215610 16.377300 -0.000001 -0.000001 -0.154948 2.593630 -0.125229 6.456720 -0.000001 -0.000000 5.736590 2.618830 -2.270450 12.994200 -0.242716 4.980390 -93.128300 7.984510 -68.522200 5.348090 -0.000007 -0.000001 -52.435700 -12.037200 16.299200 24.328600 0.000019 0.000005 4.010480 38.708600 -6.398340 22.291600 -0.000001 0.000005 -8.954160 4.956520 8.231790 12.994500 -0.242716 -4.980390 88.871700 3.640250 -72.765700 -5.348130 -0.000001 -0.000004 -65.635400 18.193000 -8.430360 -24.328900 0.000322 -0.000009 1.293300 1.544070 -40.017500 -22.291500 -0.000108 -0.000004 3.902520 5.350000 -1.367730 -2.192480 -6.469440 -0.000000 -175.220000 -4.351350 -23.938400 39.081100 -0.000007 -0.000012 0.271012 -0.160689 59.334800 40.985400 -0.000006 -0.000013 -11.404500 11.200200 -43.061000 11.754300 -0.000000 0.000003 0.001755 0.038312 -15.022600 -2.192510 6.469440 -0.000001 -177.818000 6.722700 177.007000 -39.081100 -0.002282 -0.040193 -0.011291 0.036634 21.741000 -40.985400 0.000008 0.000006 -4.971060 3.115950 -67.280400 -11.754300 -0.000006 -0.000006 0.001485 0.137096 -11.013600
0.000000 0.000000 0.000000 0.000000 0.000000 -0.000000 -218.799000 93.986500 294.535000 149.007000 88.273900 -62.071700 15.735700 0.000005 -0.000001 131.059000 87.532400 -130.304000 8.984550 -0.406207 -0.000000 -4.068290 3.161380 1.623660 16.377300 -0.000001 -0.000001 -0.044289 3.015580 -0.285687 6.456720 -0.000001 -0.000000 5.479520 2.406140 -2.162190 12.994200 -0.242716 4.980390 -92.768300 6.704070 -67.500600 5.348090 -0.000007 -0.000001 -47.623100 -13.534000 20.887700 24.328600 0.000019 0.000005 2.850460 23.830600 -7.026000 22.291600 -0.000001 0.000005 -6.663300 5.005250 7.208160 12.994500 -0.242716 -4.980390 89.104200 2.936680 -73.027500 -5.348130 -0.000001 -0.000004 -64.418000 18.554100 -11.039200 -24.328900 0.000322 -0.000009 -1.638240 -1.491140 -47.667000 -22.291500 -0.000108 -0.000004 6.654220 5.446910 -4.527980 -2.192480 -6.469440 -0.000000 -176.744000 -4.857420 -25.713800 39.081100 -0.000007 -0.000012 0.190821 -0.152723 51.327600 40.985400 -0.000006 -0.000013 -9.714990 11.571600 -47.549900 11.754300 -0.000000 0.000003 0.001437 0.029341 -15.386500 -2.192510 6.469440 -0.000001 -179.747000 9.551790 179.713000 -39.081100 -0.002282 -0.040193 -0.002352 0.018351 17.192200 -40.985400 0.000008 0.000006 -5.658870 7.839020 -62.817600 -11.754300 -0.000006 -0.000006 0.002403 0.099342 -12.544600
0.000000 0.000000 0.000000 0.000000 0.000000 -0.000000 -215.966000 94.412400 294.282000 123.807000 87.211900 -37.813300 15.735700 0.000005 -0.000001 140.601000 87.193500 -139.916000 8.984550 -0.406207 -0.000000 -4.234600 4.262420 1.529770 16.377300 -0.000001 -0.000001 -0.161703 3.288320 -0.349500 6.456720 -0.000001 -0.000000 5.450720 2.235530 -2.429340 12.994200 -0.242716 4.980390 -92.385900 5.618140 -66.944900 5.348090 -0.000007 -0.000001 -43.602600 -15.416700 24.178900 24.328600 0.000019 0.000005 2.207640 17.736400 -7.211780 22.291600 -0.000001 0.000005 -1.510110 4.991900 7.488000 12.994500 -0.242716 -4.980390 89.310500 2.289950 -73.238500 -5.348130 -0.000001 -0.000004 -63.011100 17.820400 -14.041500 -24.328900 0.000322 -0.000009 -3.369420 -2.492890 -53.532700 -22.291500 -0.000108 -0.000004 7.426100 5.481660 -5.812180 -2.192480 -6.469440 -0.000000 -177.376000 -4.670890 -26.320200 39.081100 -0.000007 -0.000012 0.122499 -0.142262 40.730600 40.985400 -0.000006 -0.000013 -8.256110 10.602000 -49.664200 11.754300 -0.000000 0.000003 0.001488 0.030664 -15.332900 -2.192510 6.469440 -0.000001 178.981000 12.160600 -177.928000 -39.081100 -0.002282 -0.040193 0.007002 -0.014979 13.764500 -40.985400 0.000008 0.000006 -6.453110 12.024800 -59.049000 -11.754300 -0.000006 -0.000006 0.001757 0.038379 -15.016300
0.000000 0.000000 0.000000 0.000000 0.000000 -0.000000 -213.090000 94.324600 294.077000 113.375000 86.812200 -28.041100 15.735700 0.000005 -0.000001 143.794000 86.948100 -143.024000 8.984550 -0.406207 -0.000000 -4.200390 4.841140 1.718480 16.377300 -0.000001 -0.000001 -0.335392 3.362860 -0.617844 6.456720 -0.000001 -0.000000 5.295470 1.979380 -2.573930 12.994200 -0.242716 4.980390 -92.109500 4.954690 -66.902900 5.348090 -0.000007 -0.000001 -40.382700 -17.029900 25.914000 24.328600 0.000019 0.000005 2.313390 20.239700 -6.660910 22.291600 -0.000001 0.000005 7.686140 4.861510 10.104900 12.994500 -0.242716 -4.980390 89.501700 1.678740 -73.464800 -5.348130 -0.000001 -0.000004 -62.047200 16.397500 -16.917600 -24.328900 0.000322 -0.000009 -3.829960 -2.443410 -57.501100 -22.291500 -0.000108 -0.000004 7.841720 5.474440 -5.537320 -2.192480 -6.469440 -0.000000 -177.532000 -4.293540 -25.679700 39.081100 -0.000007 -0.000012 0.067553 -0.126267 28.146700 40.985400 -0.000006 -0.000013 -6.664980 9.337250 -50.476300 11.754300 -0.000000 0.000003 0.001554 0.032448 -15.260500 -2.192510 6.469440 -0.000001 178.447000 12.385300 -175.916000 -39.081100 -0.002282 -0.040193 0.013761 -0.049734 11.839000 -40.985400 0.000008 0.000006 -7.722510 13.217900 -57.155400 -11.754300 -0.000006 -0.000006 -0.000854 -0.013306 -17.114300
